# xmcd
#
# Track frame offsets: 
#        150
#        13842
#        36336
#        48147
#        71020
#        88453
#
# Disc length: 1410 seconds
#
# Revision: 2
# Processed by: cddbd v1.5.2PL0 Copyright (c) Steve Scherf et al.
# Submitted via: ExactAudioCopy v0.99pb5
#
DISCID=4f058006
DTITLE=Eddie Kirkland - Hastings Street Grease Sessions (Bonus Disc)
DYEAR=2004
DGENRE=Blues
TTITLE0=Going Back To The Backwoods
TTITLE1=There's Got To Be Some Changes Made
TTITLE2=I Want To Marry You
TTITLE3=I Walk Down Hastings Street
TTITLE4=You Ain't Fooling Me Baby
TTITLE5=Something's Going Wrong
EXTD=YEAR: 2004
EXTT0=
EXTT1=
EXTT2=
EXTT3=
EXTT4=
EXTT5=
PLAYORDER=
